<svg version="1.0" xmlns="http://www.w3.org/2000/svg"
 width="300.000000pt" height="300.000000pt" viewBox="0 0 300.000000 300.000000"
 preserveAspectRatio="xMidYMid meet">
<metadata>
Created by potrace 1.10, written by Peter Selinger 2001-2011
</metadata>
<g transform="translate(0.000000,300.000000) scale(0.100000,-0.100000)"
fill="#000000" stroke="none">
<path d="M1656 2178 c-20 -23 -36 -45 -36 -50 0 -22 -39 -3 -82 39 -46 45 -48
46 -62 28 -8 -11 -22 -44 -32 -72 -10 -29 -26 -55 -35 -58 -25 -8 -115 -102
-128 -133 -9 -22 -24 -31 -72 -46 l-60 -18 17 -26 c9 -15 27 -38 40 -53 34
-35 29 -67 -16 -118 -21 -25 -37 -48 -34 -52 2 -4 27 -13 55 -20 54 -14 74
-36 63 -71 -6 -19 -11 -44 -13 -59 -1 -4 -22 -6 -48 -5 l-48 1 3 -33 c1 -19 9
-46 16 -60 13 -24 12 -30 -6 -52 -16 -20 -21 -21 -29 -9 -5 7 -9 20 -9 27 0
23 -22 8 -47 -31 -19 -31 -21 -37 -7 -37 8 0 24 5 35 11 23 12 59 3 55 -14 -1
-7 -1 -9 1 -5 3 4 4 10 3 14 -1 4 11 15 27 25 15 10 23 19 17 19 -17 0 -14 50
4 85 8 16 28 42 43 56 22 20 29 36 29 64 0 43 -15 75 -35 75 -7 0 -17 10 -21
23 -4 12 -10 24 -15 27 -4 3 2 25 14 48 17 35 19 46 9 60 -7 9 -15 23 -18 30
-10 20 14 92 30 92 7 0 26 18 41 39 15 22 53 64 85 94 31 30 59 60 61 66 9 25
129 54 129 31 0 -5 9 -10 20 -10 11 0 20 5 20 10 0 6 11 10 25 10 17 0 25 6
25 18 0 9 5 24 11 32 8 11 9 6 5 -20 -5 -33 -3 -36 35 -54 46 -21 151 -115
176 -157 12 -21 25 -29 44 -29 15 0 34 -6 41 -13 7 -6 32 -24 55 -39 46 -30
68 -80 56 -127 -9 -37 -59 -124 -85 -148 -50 -47 -137 -80 -260 -98 -39 -6
-52 -24 -20 -27 9 0 24 -2 32 -3 30 -3 132 26 181 51 188 95 246 307 104 379
-22 12 -74 54 -115 95 -46 46 -95 84 -127 99 -47 22 -53 28 -73 82 -11 33 -25
59 -30 59 -5 0 -25 -19 -44 -42z"/>
<path d="M1506 1980 c-16 -5 -47 -26 -68 -47 -29 -28 -38 -45 -38 -71 0 -64
58 -132 113 -132 41 0 40 16 -3 29 -46 14 -80 53 -80 92 0 102 108 153 180 84
48 -46 58 -22 11 26 -31 30 -60 35 -115 19z"/>
<path d="M1568 1903 c-11 -3 -16 -13 -15 -31 2 -21 -3 -28 -20 -30 -46 -7 -13
-72 36 -72 32 0 71 43 71 78 0 39 -32 63 -72 55z"/>
<path d="M1809 1882 c-24 -16 -75 -60 -114 -99 -81 -82 -126 -101 -195 -83
-22 6 -40 15 -40 19 0 5 -7 11 -15 15 -28 10 -15 -14 18 -34 39 -24 106 -26
150 -4 17 9 68 52 114 96 45 43 101 87 125 98 28 13 36 20 22 20 -11 0 -40
-13 -65 -28z"/>
<path d="M1883 1803 c-20 -7 -15 -33 6 -33 11 0 22 4 25 9 8 12 -16 29 -31 24z"/>
<path d="M1986 1803 c-13 -14 -5 -33 14 -33 11 0 20 6 20 14 0 15 -24 28 -34
19z"/>
<path d="M1420 1637 c0 -27 31 -72 62 -88 15 -8 26 -8 43 1 20 11 28 9 53 -9
33 -23 62 -27 79 -10 9 9 21 8 48 -5 35 -17 38 -17 73 2 28 14 42 17 59 9 40
-18 99 36 73 68 -9 11 -42 14 -143 14 -131 1 -187 5 -260 21 -20 4 -39 4 -42
-1 -15 -23 226 -54 359 -46 87 6 88 6 70 -14 -19 -21 -54 -25 -71 -8 -9 9 -19
6 -39 -10 -34 -27 -58 -27 -85 0 -19 19 -22 19 -38 5 -24 -22 -54 -20 -76 4
-12 13 -25 17 -44 14 -39 -8 -101 20 -101 45 0 11 -4 23 -10 26 -6 3 -10 -4
-10 -18z"/>
<path d="M840 1538 c-54 -201 -24 -379 86 -497 80 -86 133 -109 298 -126 128
-14 273 -14 306 -1 8 3 98 7 200 8 l185 3 3 31 c4 43 -13 82 -46 101 -28 16
-28 17 -25 97 5 97 -13 141 -69 171 -27 14 -41 32 -58 71 -16 39 -27 53 -46
57 -14 2 -23 2 -21 -2 84 -157 99 -304 41 -411 -29 -53 -77 -93 -125 -105 -24
-6 -27 -4 -33 34 -7 45 -39 86 -76 96 -23 7 -21 4 13 -29 42 -42 49 -80 16
-89 -13 -3 -28 2 -40 14 -19 19 -19 19 -19 -3 0 -23 -2 -23 -107 -22 l-108 2
-22 38 c-12 21 -27 60 -34 86 l-11 48 -41 -1 -42 -2 35 -6 c32 -6 36 -11 56
-71 13 -35 20 -68 18 -72 -15 -24 -130 21 -200 77 -49 41 -110 158 -118 230
l-6 50 21 -40 c28 -53 85 -122 111 -136 12 -7 3 6 -20 28 -91 87 -138 272 -98
389 9 27 12 52 7 57 -5 5 -18 -27 -31 -75z m966 -305 c17 -40 17 -77 0 -125
-13 -35 -12 -38 5 -38 11 0 19 -5 19 -11 0 -6 11 -20 25 -31 16 -13 25 -29 25
-49 l0 -29 -106 0 -106 0 18 28 c52 79 59 103 59 213 l0 106 24 -15 c13 -9 30
-31 37 -49z"/>
<path d="M897 1582 l-27 -28 21 -74 c22 -80 36 -108 78 -153 27 -30 79 -62 87
-54 7 6 7 167 1 173 -2 3 -31 -7 -62 -21 -32 -14 -60 -23 -62 -21 -3 2 3 18
11 35 14 26 14 38 2 96 -8 36 -16 68 -18 70 -3 3 -16 -8 -31 -23z m134 -221
c-12 -54 -16 -58 -41 -36 -30 27 -25 54 13 70 17 7 33 12 35 10 1 -1 -2 -21
-7 -44z"/>
<path d="M1360 1571 c0 -13 52 -61 81 -77 35 -18 35 -37 0 -139 -15 -43 -16
-54 -6 -40 16 20 32 70 45 137 6 33 5 37 -16 42 -13 4 -42 23 -64 45 -22 21
-40 35 -40 32z"/>
<path d="M1265 1321 c61 -13 98 -117 78 -216 -6 -27 -10 -51 -9 -52 0 -1 23 4
51 11 46 12 50 16 58 50 18 74 -15 172 -65 196 -21 10 -21 10 -6 -3 36 -29 61
-151 42 -201 -3 -9 -17 -16 -29 -16 -22 0 -23 4 -24 58 0 63 -12 112 -35 148
-15 21 -14 23 7 27 12 2 -5 4 -38 4 -41 1 -51 -1 -30 -6z"/>
<path d="M1950 950 c0 -5 8 -10 18 -11 9 0 1 -6 -18 -14 l-35 -12 39 -8 c55
-11 111 4 111 30 0 17 -8 20 -57 23 -36 2 -58 -1 -58 -8z"/>
<path d="M1583 903 c26 -2 68 -2 95 0 26 2 4 3 -48 3 -52 0 -74 -1 -47 -3z"/>
</g>
</svg>
